PathFileType	4	(X/Y/Z)	Patient4_TMGait_0pt3_01_left_15.trc.trc
DataRate	CameraRate	NumFrames	NumMarkers	Units	OrigDataRate	OrigDataStartFrame	OrigNumFrames
54.474708171206	54.474708171206	6	33	mm	54.474708171206	71	       141
Frame#	Time	Sacral			L.Shoulder			Chest			R.Shoulder			Neck			R.ASIS			L.ASIS			R.Thigh.Superior			R.Thigh.Lateral			R.Thigh.Inferior			R.Patella			L.Thigh.Superior			L.Thigh.Lateral			L.Thigh.Inferior			L.Patella			L.Shank.Superior			L.Shank.Lateral			L.Shank.Inferior			R.Shank.Superior			R.Shank.Lateral			R.Shank.Inferior			R.Heel			R.Midfoot.Superior			R.Midfoot.Lateral			R.Toe			L.Heel			L.Midfoot.Lateral			L.Midfoot.Superior			L.Toe			L.Elbow			L.Wrist			R.Elbow			R.Wrist			
		X1	Y1	Z1	X2	Y2	Z2	X3	Y3	Z3	X4	Y4	Z4	X5	Y5	Z5	X6	Y6	Z6	X7	Y7	Z7	X8	Y8	Z8	X9	Y9	Z9	X10	Y10	Z10	X11	Y11	Z11	X12	Y12	Z12	X13	Y13	Z13	X14	Y14	Z14	X15	Y15	Z15	X16	Y16	Z16	X17	Y17	Z17	X18	Y18	Z18	X19	Y19	Z19	X20	Y20	Z20	X21	Y21	Z21	X22	Y22	Z22	X23	Y23	Z23	X24	Y24	Z24	X25	Y25	Z25	X26	Y26	Z26	X27	Y27	Z27	X28	Y28	Z28	X29	Y29	Z29	X30	Y30	Z30	X31	Y31	Z31	X32	Y32	Z32	X33	Y33	Z33	

71	29.095000000000	751.492198023617	1000.404734009130	434.687094359770	975.902139516492	1439.128708829274	312.262837781453	1029.912946748840	1360.960352963708	491.226015576614	903.690516552946	1428.090216620289	639.751368312481	922.354235416508	1494.301500369610	465.927949111728	957.276752751605	942.250090571120	597.371630893586	993.170070970428	962.033332195933	322.929477950991	1037.029345410942	768.450706402729	575.145537225770	984.708186656945	646.878588411677	640.198391634091	1078.004660113544	609.307275370952	566.947394814017	1107.799657709031	526.873529708305	587.125765775328	1006.784217309489	735.360886424236	361.159538403164	907.768070672046	627.243070510476	291.945353407161	966.445973434703	543.370257918438	369.034862360864	955.066954988239	476.302345495464	380.256770489871	922.730674959176	407.319381196558	371.247618231015	827.560980847414	298.268095735124	320.181446168350	861.399953538278	187.550925180685	400.863223494024	1089.636108385675	436.556245949430	596.696127268776	1029.236793186576	324.614910289724	657.970197308378	1099.629036591957	236.062115422235	611.471922915065	1003.601619025331	49.545259981301	578.330884570672	1163.803730471901	121.718637689687	627.363950228533	1085.653705681564	43.447130937619	653.468996495067	1288.507103871057	86.444756131979	656.646304282315	720.425863904003	37.901580907644	442.811346556604	794.768134669543	35.632491433390	362.735152572814	879.274667258805	95.700400584087	390.563434376476	1006.965849324149	41.543951234520	361.647535491667	1121.415903169886	1156.564451318694	145.824589469185	1372.123377614989	1110.894694158369	201.608740679418	748.300340730527	1105.539371123690	703.440449709122	739.967873810029	843.755256276736	703.793758131180	
72	29.113357142857	752.777647093248	999.920337287370	435.376493884533	978.743644172402	1438.176969859876	315.300648508493	1030.940314924479	1360.015469603506	494.770871315600	903.464240058236	1427.536430174232	642.085657515162	923.820999926297	1493.481880008376	468.470791133099	956.903422877926	940.761129631260	599.873580778878	995.232386644665	961.369054785448	325.655043570312	1034.953817416905	765.549540995146	578.894319562570	979.482407262194	644.034656170854	642.344209300183	1073.464964665471	606.346330952936	570.275172220763	1101.503921659886	525.476160658151	589.076198357293	1004.454372214106	733.795633432821	362.672568520401	903.302383406529	627.859129910483	291.739723787896	959.520066565518	542.650790545769	368.699505482543	946.877216940284	476.326220915035	379.584819754853	915.316667824137	407.897960028582	370.501849521329	820.661133314587	298.332397477033	319.369286226534	855.086762809519	187.857349164172	400.459245333256	1086.710730247084	435.046276231232	598.819675238758	1029.950074726108	321.243132338234	660.406452039963	1103.067184853608	234.827121928778	613.826319184044	1012.221042216660	46.658815981155	581.354989107224	1171.247255858656	121.325954619672	629.145846813797	1094.983341183799	41.601066742965	655.742228710658	1296.966604493397	88.243293530842	657.195298555930	714.781346629359	37.741744483683	442.790602250633	789.110359593365	35.480106110696	362.659585477381	873.576259949423	95.667469769556	390.417615071327	1001.327216065105	41.669777751321	361.717388479183	1128.171420022629	1157.996439992586	149.695632365452	1379.543003285720	1119.325048283775	206.988305087344	744.319550875201	1106.822848360904	702.986461304836	736.385273963261	844.850696489942	702.413979494148	
73	29.131714285714	754.345697863298	999.032591592834	436.517798089282	981.398219435789	1436.891635217507	318.562684530827	1032.072193757872	1358.777099140465	498.442116992075	903.548877903713	1426.577241705647	644.744670031024	925.320815069555	1492.320052487556	471.305779923286	956.996712860375	938.864530267575	602.419379631851	997.450687662713	960.413071736924	328.438895973447	1033.583194962500	762.451790548389	582.466509687395	975.012776347706	640.993216064017	644.171646948147	1069.701857679320	603.311037590130	573.289166759216	1095.758175040533	523.513556638405	590.824225729531	1002.696772012876	732.061147541444	364.125098123672	899.486332923071	628.205910278664	291.777195315373	953.514688261173	541.775793850657	368.529149710868	939.721237301328	476.113606176583	379.100348837423	908.687843244920	408.214189500784	369.979022165975	814.296058276122	298.370111911480	318.726421229212	849.031701667727	188.011762792466	400.121719725304	1083.609225672996	432.975448740510	600.755648702327	1029.300212504049	317.988357561999	662.261652792086	1104.388559379251	233.219777252061	615.792245245932	1017.118812860672	44.736404200022	583.501155168761	1175.401185102219	120.368412381946	630.715846686825	1100.103005135931	40.186655760402	657.584360394252	1301.471145898703	88.254477287580	658.207936673256	709.152839292736	37.582999555103	442.766035556307	783.470439584761	35.330814683427	362.590217932381	867.894162461654	95.614236202308	390.297561125070	995.705817204456	41.742884435594	361.777702386126	1134.327160717706	1158.688324601665	153.940432680818	1386.215804325056	1126.568176639035	212.367428905820	741.719582894882	1107.227224802103	703.163744935446	734.917289022500	845.036479412635	701.908225210914	
74	29.150071428571	756.176910346224	997.900951974292	438.080176732820	983.924495267591	1435.396564916794	322.047571678835	1033.355175861144	1357.350442810464	502.245210922891	903.974913148329	1425.323016188309	647.730055446731	926.888742316137	1490.931163887969	474.435839947329	957.545059329125	936.708317817456	605.024087389557	999.813620387351	959.254749518172	331.291236778333	1032.890283898753	759.297803905457	585.812014343370	971.325932733350	637.922572970572	645.689067724839	1066.712622987642	600.329297448784	575.970726543912	1090.663041956444	521.148466615126	592.379144842869	1001.563299421843	730.216990206781	365.580750373321	896.418654504236	628.292348494610	292.152423188132	948.560773918671	540.770543392609	368.644370513634	933.731942451269	475.661192862212	378.936410269658	902.957743635809	408.253330236815	369.779155480937	808.551202512423	298.407580555738	318.327447911764	843.282657288689	188.016387894867	399.893263114325	1080.470045087549	430.491996145407	602.476079099449	1027.519178941016	314.839467906537	663.537954681340	1103.933237760319	231.235914517772	617.317789284354	1018.731264705596	43.511893925780	584.740018950363	1176.718360001360	118.823021830765	631.981029858659	1101.511440727600	39.047536779436	658.959583381049	1302.596244518389	86.595170598829	659.593539306007	703.544295629708	37.444379652938	442.728973913190	777.856458508636	35.198950186104	362.529153905501	862.240605072866	95.550920762381	390.208942650276	990.105809807841	41.751938700624	361.825778101498	1139.841593039361	1158.685435927698	158.534358300263	1392.140989189240	1132.599855642047	217.704183347456	740.503339460069	1106.831575858267	704.009287121336	735.406339969984	844.410844097899	702.369640100596	
75	29.168428571429	758.237910876953	996.704886558242	440.018465553194	986.391068796661	1433.831487308352	325.744641751584	1034.836973527513	1355.854396391383	506.177565015813	904.772708797962	1423.910370276880	651.027092204826	928.564034672659	1489.449473934499	477.850791322631	958.520525872238	934.471720805492	607.714700174658	1002.298846761424	957.996342700193	334.230688164026	1032.808884640130	756.235426844166	588.911450766890	968.417452598246	635.003182166081	646.952955774968	1064.444647448812	597.524249291574	578.325588103837	1086.277335155012	518.572209347872	593.755077137084	1001.067464271359	728.335661459522	367.124580121878	894.163383405373	628.145355912597	292.949777906966	944.733083625644	539.671619019549	369.158299389189	928.979742583565	474.980983110532	379.214171819358	898.196064293688	408.020418547183	369.988862501825	803.480375057892	298.479458609119	318.238830071613	837.874416827618	187.888937225201	399.812411584734	1077.423224213084	427.787210468213	603.966153543982	1024.916618122736	311.838050658773	664.298599856716	1102.114365464118	228.959065446867	618.386371669254	1017.647799235042	42.774048491972	585.144422014197	1175.766450174700	116.778358264872	632.866305018751	1099.899234971997	38.099061738041	659.872673946061	1301.044858647172	83.559990238621	661.179318210482	697.958789317764	37.354524887509	442.671191475158	772.276697533519	35.104051350764	362.478089757785	856.629984062181	95.492389002915	390.154929904753	984.531428650698	41.689465766926	361.859233828233	1144.685506890739	1158.057987408086	163.443111697383	1397.324002288223	1137.407260358031	222.962282614479	740.649859090774	1105.765969195850	705.543751744414	737.679767463790	843.127597126513	703.879380412704	
76	29.186785714286	760.485124535998	995.619749954486	442.283619680940	988.865784953341	1432.338601785829	329.631120511920	1036.557942475268	1354.409951478647	510.225134749302	905.965848196263	1422.487031636804	654.603371048229	930.383530575162	1488.014614257387	481.525214765426	959.883073866033	932.347742720991	610.524775415925	1004.873592286568	956.742702474269	337.278663657565	1033.251711330297	753.412669108159	591.777220440674	966.266851333956	632.411092716845	648.061105491470	1062.813950278711	595.009388667377	580.380123945758	1082.622621661628	515.986245089353	594.971596373026	1001.181271325302	726.496680989930	368.848806791627	892.739145782792	627.809101367721	294.232548133128	942.044522586820	538.524359813516	370.158855282676	925.471232734557	474.099508878207	380.022631586492	894.422159241821	407.542116546401	370.667931587461	799.099263484291	298.628422384577	318.509404121010	832.825411138277	187.663548875683	399.906709910663	1074.581138067968	425.070104527506	605.230355445420	1021.834686487921	309.068169487531	664.663250430901	1099.359398840195	226.535541504940	619.022773032078	1014.520813175989	42.362861835376	584.874523398194	1173.142388932777	114.404746070747	633.336303015159	1096.043958233770	37.309166088596	660.370700288600	1297.553593120367	79.570895158399	662.756786551578	692.398936993532	37.353707410119	442.585657245145	766.739251288713	35.071038456514	362.437834532872	851.079061146502	95.457176979596	390.134648905475	978.987347791198	41.552358740904	361.875823191221	1148.844030610078	1156.895270663736	168.622981432071	1401.778137058081	1140.986497995121	228.112795750202	742.106304666163	1104.197169723859	707.768196235098	741.555732244285	841.379173079256	706.500011305930	
